<svg xmlns="http://www.w3.org/2000/svg" width="64" height="42" viewBox="0 0 64 42"><g id="1" data-name="Vector Smart Object" transform="translate(-46.184 -57.358)"><g id="&#x421;&#x433;&#x440;&#x443;&#x43F;&#x43F;&#x438;&#x440;&#x43E;&#x432;&#x430;&#x442;&#x44C;_13" data-name="&#x421;&#x433;&#x440;&#x443;&#x43F;&#x43F;&#x438;&#x440;&#x43E;&#x432;&#x430;&#x442;&#x44C; 13"><path id="&#x41A;&#x43E;&#x43D;&#x442;&#x443;&#x440;_35" data-name="&#x41A;&#x43E;&#x43D;&#x442;&#x443;&#x440; 35" d="M109.245,79.424h-8.079v-.063a2.943,2.943,0,1,0-5.886,0v.063H87.2a.94.94,0,0,0,0,1.881h7.076V82.37c0,.021,0,.042,0,.062H62.088c0-.021,0-.042,0-.062V81.3h7.076a.94.94,0,0,0,0-1.881H61.088v-.063a2.943,2.943,0,1,0-5.886,0v.063H47.123a.94.94,0,0,0,0,1.881H54.2V82.37a3.943,3.943,0,0,0,7.378,1.943h5.91l.876,2.632a4.941,4.941,0,0,0,4.694,3.386H83.311A4.94,4.94,0,0,0,88,86.945l.877-2.632h5.91a3.943,3.943,0,0,0,7.378-1.943V81.3h7.076a.94.94,0,0,0,0-1.881ZM57.08,79.361a1.064,1.064,0,1,1,2.129,0v.063H57.08Zm1.064,5.078a2.07,2.07,0,0,1-2.066-2.069V81.3h4.134V82.37a2.07,2.07,0,0,1-2.067,2.069Zm28.077,1.912a3.064,3.064,0,0,1-2.911,2.1H73.057a3.063,3.063,0,0,1-2.911-2.1l-.678-2.037H86.9Zm10.937-6.99a1.064,1.064,0,1,1,2.129,0v.063H97.159Zm3.131,3.01a2.067,2.067,0,1,1-4.134,0V81.3h4.134Zm0,0" fill="#1face1"></path><path id="&#x41A;&#x43E;&#x43D;&#x442;&#x443;&#x440;_36" data-name="&#x41A;&#x43E;&#x43D;&#x442;&#x443;&#x440; 36" d="M71.17,67.263h3.138l.935,12.171a.939.939,0,1,0,1.873-.144l-1-13.039a.94.94,0,0,0-.937-.868H73.24l4.943-5.655,4.944,5.655H81.19a.94.94,0,0,0-.937.868l-1,13.039a.94.94,0,0,0,.864,1.01c.025,0,.049,0,.073,0a.94.94,0,0,0,.936-.868l.935-12.171H85.2A.94.94,0,0,0,85.9,65.7L78.89,57.679a.939.939,0,0,0-1.414,0L70.463,65.7a.94.94,0,0,0,.707,1.559Zm0,0" fill="#1face1"></path><path id="&#x41A;&#x43E;&#x43D;&#x442;&#x443;&#x440;_37" data-name="&#x41A;&#x43E;&#x43D;&#x442;&#x443;&#x440; 37" d="M88.9,93.511a36.764,36.764,0,0,0-6.649-.926.941.941,0,0,0-.117,1.878c4.691.291,7.126,1,7.923,1.45-1.106.626-5.142,1.565-11.873,1.565s-10.766-.939-11.872-1.565c.8-.446,3.232-1.159,7.923-1.45a.941.941,0,0,0-.117-1.878,36.77,36.77,0,0,0-6.649.926c-1.395.363-3.25,1.007-3.25,2.4,0,1.256,1.412,2.087,4.577,2.7a52.207,52.207,0,0,0,9.388.751,52.2,52.2,0,0,0,9.388-.751c3.165-.61,4.578-1.441,4.578-2.7,0-1.393-1.855-2.037-3.25-2.4Zm0,0" fill="#1face1"></path></g></g></svg>