<svg xmlns="http://www.w3.org/2000/svg" width="50" height="50" viewBox="0 0 50 50"><g id="2" data-name="Vector Smart Object" transform="translate(-36.081 -36.203)"><g id="&#x421;&#x433;&#x440;&#x443;&#x43F;&#x43F;&#x438;&#x440;&#x43E;&#x432;&#x430;&#x442;&#x44C;_15" data-name="&#x421;&#x433;&#x440;&#x443;&#x43F;&#x43F;&#x438;&#x440;&#x43E;&#x432;&#x430;&#x442;&#x44C; 15"><path id="&#x41A;&#x43E;&#x43D;&#x442;&#x443;&#x440;_40" data-name="&#x41A;&#x43E;&#x43D;&#x442;&#x443;&#x440; 40" d="M74.388,62.818a11.627,11.627,0,0,0-5.235,1.239,8.564,8.564,0,0,0,0-5.708,11.7,11.7,0,1,0-5.218-5.217,8.554,8.554,0,0,0-5.708,0,11.7,11.7,0,1,0-5.217,5.217,8.554,8.554,0,0,0,0,5.708,11.7,11.7,0,1,0,5.217,5.218,8.564,8.564,0,0,0,5.708,0,11.692,11.692,0,1,0,10.453-6.457Zm0-25.147A10.225,10.225,0,1,1,67.7,55.623l5.667-5.667a2.308,2.308,0,0,0,2.045,0L79.4,53.95a.734.734,0,0,0,1.038-1.038l-3.994-3.994a2.3,2.3,0,0,0-3.083-3.083l-3.994-3.994a.734.734,0,0,0-1.038,1.038l3.994,3.994a2.3,2.3,0,0,0,0,2.045l-5.667,5.667a10.22,10.22,0,0,1,7.727-16.914Zm0,9.393a.832.832,0,1,1-.588.244.826.826,0,0,1,.588-.244ZM37.549,47.9A10.225,10.225,0,1,1,55.5,54.586l-5.667-5.667a2.308,2.308,0,0,0,0-2.045l3.994-3.994a.734.734,0,1,0-1.038-1.038L48.8,45.836a2.3,2.3,0,0,0-3.083,3.083L41.72,52.912a.734.734,0,1,0,1.038,1.038l3.994-3.994a2.308,2.308,0,0,0,2.045,0l5.667,5.667A10.22,10.22,0,0,1,37.549,47.9Zm10.225.831a.832.832,0,1,1,.588-.244.824.824,0,0,1-.588.244Zm0,36.008a10.225,10.225,0,1,1,6.689-17.952L48.8,72.45a2.3,2.3,0,0,0-2.045,0l-3.994-3.994a.734.734,0,1,0-1.038,1.038l3.994,3.994A2.3,2.3,0,0,0,48.8,76.571l3.994,3.994a.734.734,0,1,0,1.038-1.038l-3.994-3.994a2.3,2.3,0,0,0,0-2.045L55.5,67.821a10.22,10.22,0,0,1-7.727,16.914Zm0-9.393a.832.832,0,1,1,.588-.244.824.824,0,0,1-.588.244ZM53.987,61.2A7.094,7.094,0,1,1,61.081,68.3,7.1,7.1,0,0,1,53.987,61.2Zm20.4,23.533a10.22,10.22,0,0,1-7.727-16.914l5.667,5.667a2.3,2.3,0,0,0,0,2.045l-3.994,3.994a.734.734,0,0,0,1.038,1.038l3.994-3.994a2.3,2.3,0,0,0,3.083-3.083l3.994-3.994A.734.734,0,0,0,79.4,68.457L75.411,72.45a2.3,2.3,0,0,0-2.045,0L67.7,66.783a10.223,10.223,0,1,1,6.689,17.952Zm0-11.057a.832.832,0,1,1-.588.244.826.826,0,0,1,.588-.244Zm0,0" fill="#1face1"></path><path id="&#x41A;&#x43E;&#x43D;&#x442;&#x443;&#x440;_41" data-name="&#x41A;&#x43E;&#x43D;&#x442;&#x443;&#x440; 41" d="M65.606,58.2a.734.734,0,0,0-1.222.813A3.956,3.956,0,1,1,62.4,57.465a.734.734,0,0,0,.487-1.385A5.431,5.431,0,1,0,65.606,58.2Zm0,0" fill="#1face1"></path></g></g></svg>