<svg xmlns="http://www.w3.org/2000/svg" width="52" height="44" viewBox="0 0 52 44"><g id="3" data-name="Vector Smart Object" transform="translate(-37.524 -40.856)"><g id="&#x421;&#x433;&#x440;&#x443;&#x43F;&#x43F;&#x438;&#x440;&#x43E;&#x432;&#x430;&#x442;&#x44C;_11" data-name="&#x421;&#x433;&#x440;&#x443;&#x43F;&#x43F;&#x438;&#x440;&#x43E;&#x432;&#x430;&#x442;&#x44C; 11" transform="translate(0 -1)"><path id="&#x41A;&#x43E;&#x43D;&#x442;&#x443;&#x440;_21" data-name="&#x41A;&#x43E;&#x43D;&#x442;&#x443;&#x440; 21" d="M85.5,41.856H41.544a4.031,4.031,0,0,0-4.02,4.033V81.823a4.031,4.031,0,0,0,4.02,4.033H85.5a4.031,4.031,0,0,0,4.02-4.033V45.889a4.031,4.031,0,0,0-4.02-4.033ZM88,81.823a2.5,2.5,0,0,1-2.493,2.5H41.544a2.5,2.5,0,0,1-2.493-2.5V45.889a2.5,2.5,0,0,1,2.493-2.5H85.5A2.5,2.5,0,0,1,88,45.889Zm0,0" fill="#1face1"></path><path id="&#x41A;&#x43E;&#x43D;&#x442;&#x443;&#x440;_22" data-name="&#x41A;&#x43E;&#x43D;&#x442;&#x443;&#x440; 22" d="M48.057,50.023a2.4,2.4,0,1,0,2.392,2.4,2.4,2.4,0,0,0-2.392-2.4Zm0,3.267a.868.868,0,1,1,.865-.868.867.867,0,0,1-.865.868Zm0,0" fill="#1face1"></path><path id="&#x41A;&#x43E;&#x43D;&#x442;&#x443;&#x440;_23" data-name="&#x41A;&#x43E;&#x43D;&#x442;&#x443;&#x440; 23" d="M49.685,46.756H43.172a.765.765,0,0,0-.763.766v6.534a.763.763,0,1,0,1.526,0V48.287h5.75a.766.766,0,0,0,0-1.531Zm0,0" fill="#1face1"></path><path id="&#x41A;&#x43E;&#x43D;&#x442;&#x443;&#x440;_24" data-name="&#x41A;&#x43E;&#x43D;&#x442;&#x443;&#x440; 24" d="M83.876,46.756H77.364a.766.766,0,0,0,0,1.531h5.749v5.768a.763.763,0,1,0,1.526,0V47.522a.764.764,0,0,0-.763-.766Zm0,0" fill="#1face1"></path><path id="&#x41A;&#x43E;&#x43D;&#x442;&#x443;&#x440;_25" data-name="&#x41A;&#x43E;&#x43D;&#x442;&#x443;&#x440; 25" d="M49.685,79.424h-5.75V73.656a.763.763,0,1,0-1.526,0V80.19a.764.764,0,0,0,.763.766h6.513a.766.766,0,0,0,0-1.531Zm0,0" fill="#1face1"></path><path id="&#x41A;&#x43E;&#x43D;&#x442;&#x443;&#x440;_26" data-name="&#x41A;&#x43E;&#x43D;&#x442;&#x443;&#x440; 26" d="M83.876,72.891a.765.765,0,0,0-.763.766v5.768H77.364a.766.766,0,0,0,0,1.531h6.513a.764.764,0,0,0,.763-.766V73.656a.764.764,0,0,0-.763-.766Zm0,0" fill="#1face1"></path><path id="&#x41A;&#x43E;&#x43D;&#x442;&#x443;&#x440;_27" data-name="&#x41A;&#x43E;&#x43D;&#x442;&#x443;&#x440; 27" d="M52.941,51.554h8.141a.766.766,0,0,0,0-1.531H52.941a.766.766,0,0,0,0,1.531Zm0,0" fill="#1face1"></path><path id="&#x41A;&#x43E;&#x43D;&#x442;&#x443;&#x440;_28" data-name="&#x41A;&#x43E;&#x43D;&#x442;&#x443;&#x440; 28" d="M55.383,53.29H52.941a.766.766,0,0,0,0,1.531h2.442a.766.766,0,0,0,0-1.531Zm0,0" fill="#1face1"></path><path id="&#x41A;&#x43E;&#x43D;&#x442;&#x443;&#x440;_29" data-name="&#x41A;&#x43E;&#x43D;&#x442;&#x443;&#x440; 29" d="M80.62,77.689a.766.766,0,0,0,0-1.531H78.992a.766.766,0,0,0,0,1.531Zm0,0" fill="#1face1"></path><path id="&#x41A;&#x43E;&#x43D;&#x442;&#x443;&#x440;_30" data-name="&#x41A;&#x43E;&#x43D;&#x442;&#x443;&#x440; 30" d="M75.735,76.158H70.851a.766.766,0,0,0,0,1.531h4.884a.766.766,0,0,0,0-1.531Zm0,0" fill="#1face1"></path><path id="&#x41A;&#x43E;&#x43D;&#x442;&#x443;&#x440;_31" data-name="&#x41A;&#x43E;&#x43D;&#x442;&#x443;&#x440; 31" d="M67.594,63.09H64.287V59.772a.763.763,0,1,0-1.526,0V63.09H59.454a.766.766,0,0,0,0,1.531h3.307v3.318a.763.763,0,1,0,1.526,0V64.621h3.307a.766.766,0,0,0,0-1.531Zm0,0" fill="#1face1"></path></g></g></svg>